GidoleRegularBuildingBlocks.sfdir
StartChar: dollar
Encoding: 36 36 6
Width: 550
VWidth: 0
Flags: HW
LayerCount: 2
Back
Fore
SplineSet
239 612 m 5
 293 612 l 5
 293 -70 l 5
 239 -70 l 5
 239 612 l 5
293 624 m 5
 239 624 l 5
 239 737 l 5
 293 737 l 5
 293 624 l 5
EndSplineSet
EndChar
StartChar: ampersand
Encoding: 38 38 42
Width: 602
Flags: HW
LayerCount: 2
Back
Fore
SplineSet
395 482 m 5
 465 482 l 5
 465 378 l 5
 575 378 l 5
 575 308 l 5
 465 308 l 5
 465 157 l 6
 465 120 466 93 486 75 c 4
 496 65 511 60 528 60 c 4
 547 60 565 67 577 77 c 5
 613 21 l 5
 591 4 562 -6 527 -6 c 4
 466 -6 421 25 409 75 c 4
 407.231027986 82.3707167251 399.236268915 90.0673543899 397.893271527 98.999996529 c 5
 395.420014137 115.450306392 395 74.96484375 395 97 c 6
 395 308 l 5
 315 308 l 5
 315 378 l 5
 395 378 l 5
 395 482 l 5
272 673 m 4xf0
 344 673 401 649 435 618 c 5
 392 563 l 5
 369 584 327 603 272 603 c 4
 192 603 144 559 144 490 c 4
 144 445.595703125 164.467773438 411.418945312 199 393.057617188 c 4
 225.48828125 378.973632812 254.669921875 378 295 378 c 6
 323 378 l 5
 323 308 l 5
 295 308 l 6
 252.857421875 308 222.694335938 306.94921875 195 293.020507812 c 4
 155.932617188 273.372070312 134 235.505859375 134 186 c 4xe8
 134 112 184 64 273 64 c 4
 330 64 372 84 397 113 c 5
 440 61 l 5
 409 19 350 -6 273 -6 c 4
 137 -6 60 70 60 186 c 4
 60 256.293945312 90.8798828125 312.55078125 146.036132812 344.359375 c 5
 97.97265625 374.935546875 70 426.110351562 70 490 c 4xf0
 70 601 146 673 272 673 c 4xf0
EndSplineSet
EndChar
StartChar: comma
Encoding: 44 44 5
Width: 202
Flags: HW
LayerCount: 2
Back
Fore
SplineSet
101 96 m 4
 126 96 152 80 152 45 c 4
 152 39 151 22 143 -1 c 6
 98 -121 l 5
 53 -121 l 5
 86 13 l 5
 91 14 97 -3 101 -6 c 5
 76 -6 50 10 50 45 c 4
 50 80 76 96 101 96 c 4
EndSplineSet
EndChar
StartChar: three
Encoding: 51 51 41
Width: 520
VWidth: 0
Flags: HW
LayerCount: 2
Back
Fore
SplineSet
443 570 m 5
 443 459 366 387 248 387 c 4
 130 387 53 459 53 570 c 5
 127 570 l 5
 127 501.458984375 174.779296875 457 248 457 c 4
 321.220703125 457 369 501.458984375 369 570 c 5
 443 570 l 5
113 580 m 5
 39 580 l 5
 39 691 115 763 241 763 c 4
 367 763 443 691 443 580 c 5
 369 580 l 5
 369 648.541015625 320.841796875 693 241 693 c 4
 161.159179688 693 113.000976562 648.541992188 113 580 c 5
367 186 m 0
 366.999023438 259.708984375 317.793945312 308 236 308 c 0
 154.206054688 308 105 259.708984375 105 186 c 1
 89 186 l 1
 89 112.291992188 139.249023438 64 228 64 c 0
 316.750976562 64 367 112.291992188 367 186 c 0
441 186 m 0
 441 70 364 -6 228 -6 c 0
 92 -6 15 70 15 186 c 1
 31 186 l 1
 31 302 108 368 236 368 c 0
 364 368 441 292 441 186 c 0
EndSplineSet
EndChar
StartChar: five
Encoding: 53 53 40
Width: 520
Flags: HW
LayerCount: 2
Back
SplineSet
377 206.5 m 4
 377 282.140625 329.220703125 331.5 256 331.5 c 4
 182.780273438 331.5 135 282.141601562 135 206.5 c 5
 87 206.5 l 5
 87 127.279296875 137.982421875 63.5 232 63.5 c 4
 326.017578125 63.5 377 115.1953125 377 206.5 c 4
451 206.5 m 4
 451 70.5 374 -6.5 232 -6.5 c 4
 90 -6.5 13 88.5 13 206.5 c 5
 61 206.5 l 5
 61 324.5 138 401.5 256 401.5 c 4
 374 401.5 451 324.5 451 206.5 c 4
EndSplineSet
Fore
SplineSet
646 -6 m 1
 585 -6 507 12 456 61 c 1
 504 113 l 1
 541 77 599 64 646 64 c 1
 715 64 767 99 767 205 c 0
 767 295 715 332 646 332 c 0
 613 332 582 325 549 305 c 1
 481 334 l 1
 481 667 l 1
 800 667 l 1
 800 597 l 1
 553 597 l 1
 553 379 l 1
 582 395 614 402 646 402 c 0
 753 402 841 343 841 205 c 0
 841 51 753 -6 646 -6 c 1
61 207 m 5
 61 325 138 402 256 402 c 4
 374 402 451 325 451 207 c 4
 451 71 374 -6 232 -6 c 4
 90 -6 13 89 13 207 c 1029
EndSplineSet
EndChar
StartChar: nine
Encoding: 57 57 4
Width: 520
Flags: HW
LayerCount: 2
Back
SplineSet
455 205 m 4
 455 51 367 -6 260 -6 c 5
 199 -6 121 12 70 61 c 5
 118 113 l 5
 155 77 213 64 260 64 c 5
 329 64 381 99 381 205 c 4
 381 311 381 278 381 324 c 29
 455 462 l 29
 455 412 455 359 455 205 c 4
139 462 m 4
 139 356 191 321 260 321 c 4
 329 321 381 356 381 462 c 4
 381 568 329 603 260 603 c 4
 191 603 139 568 139 462 c 4
381 285.076171875 m 5
 347.659179688 261.330078125 305.55078125 251 260 251 c 4
 153 251 65 308 65 462 c 4
 65 616 153 673 260 673 c 4
 367 673 455 616 455 462 c 4
 381 285.076171875 l 5
EndSplineSet
Fore
SplineSet
139 462 m 4
 139 568 191 603 260 603 c 4
 329 603 381 568 381 462 c 4
 381 356 329 321 260 321 c 4
 191 321 139 356 139 462 c 4
455 462 m 4
 455 616 367 673 260 673 c 4
 153 673 65 616 65 462 c 4
 65 308 153 251 260 251 c 4
 367 251 455 308 455 462 c 4
EndSplineSet
EndChar
StartChar: question
Encoding: 63 63 3
Width: 473
VWidth: 0
Flags: HW
LayerCount: 2
Back
Fore
SplineSet
413 490 m 4
 413 601 337 673 211 673 c 4xf0
 139 673 82 649 48 618 c 5
 91 563 l 5
 114 584 156 603 211 603 c 4
 291 603 339 559 339 490 c 4
 339 421 291 377 211 377 c 4
 156 377 114 396 91 417 c 5
 48 362 l 5
 82 331 139 307 211 307 c 4
 337 307 413 379 413 490 c 4
EndSplineSet
EndChar
StartChar: at
Encoding: 64 64 2
Width: 864
VWidth: 0
Flags: HW
LayerCount: 2
Back
Fore
SplineSet
535 229 m 5
 509 232 485 233 464 233 c 4
 402 233 313 225 313 143 c 4
 313 94 350 59 410 59 c 4
 459.50390625 59 509.6015625 85.7900390625 527.846679688 149 c 4
 534.779296875 173.01953125 535 193.240234375 535 229 c 5
789 45 m 6
 789 15 788 -9 782 -34 c 4
 760 -136 685 -190 554 -190 c 4
 310 -190 l 4
 179 -190 105 -136 82 -35 c 4
 76 -10 75 15 75 45 c 6
 75 247 l 6
 75 277 76 302 82 327 c 4
 105 428 179 482 310 482 c 4
 430 482 l 4
 497 482 574 456 597 352 c 4
 603 325 603 299 603 261 c 6
 603 0 l 5
 535 0 l 5
 535 52 l 5
 503 19 465 -6 402 -6 c 4
 315 -6 245 53 245 143 c 4
 245 250 331 294 456 294 c 4
 478 294 509 293 535 289 c 5
 535 299 535 326 527 352 c 4
 509 407 466 418 430 418 c 4
 310 418 l 4
 224 418 172 384 153 327 c 4
 145 302 143 279 143 247 c 6
 143 45 l 6
 143 13 145 -10 153 -35 c 4
 172 -92 224 -126 310 -126 c 4
 554 -126 l 4
 640 -126 692 -92 711 -35 c 4
 719 -11 721 13 721 45 c 6
 721 306 l 6
 721 529 611 608 416 608 c 6
 340 608 l 5
 340 674 l 5
 416 674 l 6
 648 674 789 577 789 306 c 6
 789 45 l 6
EndSplineSet
EndChar
StartChar: C
Encoding: 67 67 1
Width: 540
VWidth: 0
Flags: HW
LayerCount: 2
Back
Fore
SplineSet
525 438 m 6
 525 592.014648438 440.955833047 673 290 673 c 4
 242 673 166 661 110 608 c 5
 154 553 l 5
 203 596 255 603 290 603 c 4
 398.449893623 603 451 546.599609375 451 438 c 6
 461 229 l 6
 461 120.385742188 398.47355767 64 290 64 c 4
 243 64 185 77 148 113 c 5
 100 61 l 5
 151 12 229 -6 290 -6 c 4
 440.936834463 -6 535 75.0068359375 535 229 c 6
 525 438 l 6
EndSplineSet
EndChar
StartChar: D
Encoding: 68 68 0
Width: 570
VWidth: 0
Flags: HW
LayerCount: 2
Back
Fore
SplineSet
149 597 m 5
 149 70 l 5
 300 70 l 6
 390 70 431 118 431 189 c 6
 431 478 l 6
 431 549 390 597 300 597 c 6
 149 597 l 5
75 667 m 5
 300 667 l 22
 435 667 505 585 505 478 c 6
 505 189 l 6
 505 82 435 0 300 0 c 14
 75 0 l 5
 75 667 l 5
EndSplineSet
EndChar
StartChar: G
Encoding: 71 71 8
Width: 580
VWidth: 0
Flags: HW
LayerCount: 2
Back
Fore
SplineSet
441 438 m 5
 441 469.7890625 439.02734375 494.278320312 431.135742188 518 c 4
 412.329101562 574.534179688 366.2109375 603 290 603 c 4
 213.7890625 603 167.670898438 574.534179688 148.864257812 518 c 4
 140.657226562 493.329101562 139 469.7890625 139 438 c 5
 139 229 l 5
 139 197.2109375 140.657373657 173.670677028 148.864248617 148.999900725 c 4
 167.670618239 92.465867951 213.789200425 64 290 64 c 4
 366.210888797 64 412.329447878 92.4660665015 431.135817499 149.000099275 c 4
 439.027043423 172.721999566 441 197.2109375 441 229 c 5
 441 438 l 5
515 438 m 5
 515 229 l 5
 515 199.018554688 513.660106906 175.403205804 508.121316862 150.000020869 c 4
 485.944853651 48.2895765699 411.018367267 -6 290 -6 c 4
 169.378823041 -6 94.5061611907 47.9240535805 72.0981679597 148.999979198 c 4
 66.4707379973 174.383675383 65 198.62109375 65 229 c 5
 65 438 l 5
 65 468.37890625 66.470703125 492.616210938 72.0986328125 518 c 4
 94.505859375 619.076171875 169.37890625 673 290 673 c 4
 411.018554688 673 485.9453125 618.709960938 508.12109375 517 c 4
 513.66015625 491.596679688 515 467.981445312 515 438 c 5
EndSplineSet
EndChar
StartChar: K
Encoding: 75 75 12
Width: 570
VWidth: 0
Flags: HW
LayerCount: 2
Back
Fore
SplineSet
418.475585938 667 m 5
 505 667 l 5
 138.630859375 162.737304688 l 5
 82 203.881835938 l 5
 418.475585938 667 l 5
75 0 m 5
 75 667 l 5
 149 667 l 5
 149 0 l 5
 75 0 l 5
525 0 m 5
 436.002929688 0 l 5
 195.875 330.506835938 l 5
 254.125 372.828125 l 5
 525 0 l 5
EndSplineSet
EndChar
StartChar: Q
Encoding: 81 81 9
Width: 600
VWidth: 0
Flags: HWO
LayerCount: 2
Back
Fore
SplineSet
390 66 m 1
 544 -36 l 1
 507 -95 l 1
 352 7 l 1
 390 66 l 1
EndSplineSet
EndChar
StartChar: X
Encoding: 88 88 11
Width: 570
VWidth: 0
Flags: HW
LayerCount: 2
Back
Fore
SplineSet
525 0 m 29
 50 667 l 29
 520 667 l 29
 45 0 l 29
 525 0 l 29
EndSplineSet
EndChar
StartChar: a
Encoding: 97 97 13
Width: 458
VWidth: 0
Flags: HW
LayerCount: 2
Back
SplineSet
210 417 m 4
 134 417 90 366.431640625 90 288 c 14
 90 189 l 22
 90 110.568359375 134 60 210 60 c 4
 286 60 330 110.568359375 330 189 c 14
 330 288 l 22
 330 366.431640625 286 417 210 417 c 4
210 483 m 4
 328 483 400 406 400 288 c 14
 400 189 l 22
 400 71 328 -6 210 -6 c 4
 92 -6 20 71 20 189 c 14
 20 288 l 22
 20 406 92 483 210 483 c 4
EndSplineSet
Fore
SplineSet
205 483 m 4
 262.716796875 483 303.447265625 464.578125 330 431.947265625 c 5
 330 667 l 5
 400 667 l 5
 400 0 l 5
 330 0 l 5
 330 45.052734375 l 5
 303.447265625 12.421875 262.716796875 -6 205 -6 c 4
 119.991210938 -6 58.8291015625 43.53515625 37.869140625 124 c 4
 30.3076171875 153.03125 30 180.631835938 30 219 c 6
 30 258 l 6
 30 296.368164062 30.3076171875 323.96875 37.869140625 353 c 4
 58.8291015625 433.46484375 119.991210938 483 205 483 c 4
215 417 m 4
 162.890625 417 128.165039062 393.235351562 111.499023438 353 c 4
 100.401367188 326.20703125 100 297.655273438 100 258 c 6
 100 219 l 6
 100 179.344726562 100.401367188 150.79296875 111.499023438 124 c 4
 128.165039062 83.7646484375 162.890625 60 215 60 c 4
 266.67578125 60 301.259765625 83.3720703125 318.081054688 123 c 4
 329.802734375 150.615234375 330 178.897460938 330 219 c 6
 330 258 l 6
 330 298.102539062 329.802734375 326.384765625 318.081054688 354 c 4
 301.259765625 393.627929688 266.67578125 417 215 417 c 4
EndSplineSet
EndChar
StartChar: b
Encoding: 98 98 14
Width: 490
VWidth: 0
Flags: HW
LayerCount: 2
Back
Fore
SplineSet
250 417 m 4
 174 417 135 366.431640625 135 288 c 14
 135 189 l 22
 135 110.568359375 174 60 250 60 c 4
 326 60 365 110.568359375 365 189 c 14
 365 288 l 22
 365 366.431640625 326 417 250 417 c 4
260 483 m 4
 366 483 435 406 435 288 c 14
 435 189 l 22
 435 71 366 -6 260 -6 c 4
 142 -6 95 71 95 189 c 14
 95 288 l 22
 95 406 142 483 260 483 c 4
65 667 m 5
 135 667 l 5
 135 0 l 5
 65 0 l 5
 65 667 l 5
EndSplineSet
EndChar
StartChar: c
Encoding: 99 99 15
Width: 428
VWidth: 0
Flags: HW
LayerCount: 2
Back
Fore
SplineSet
245 417 m 4
 169 417 125 366.431640625 125 288 c 14
 125 189 l 22
 125 110.568359375 169 60 245 60 c 4
 321 60 380 110.568359375 380 189 c 14
 375 288 l 22
 375 366.431640625 321 417 245 417 c 4
245 483 m 4
 363 483 445 406 445 288 c 14
 450 189 l 22
 450 71 363 -6 245 -6 c 4
 127 -6 55 71 55 189 c 14
 55 288 l 22
 55 406 127 483 245 483 c 4
EndSplineSet
EndChar
StartChar: e
Encoding: 101 101 16
Width: 490
VWidth: 0
Flags: HW
LayerCount: 2
Back
Fore
SplineSet
245 419 m 4
 168 419 123 367 123 288 c 14
 123 189 l 22
 123 110 168 58 245 58 c 4
 322 58 367 110 367 189 c 14
 367 288 l 22
 367 367 322 419 245 419 c 4
245 483 m 4
 363 483 435 406 435 288 c 14
 435 189 l 22
 435 71 363 -6 245 -6 c 4
 127 -6 55 71 55 189 c 14
 55 288 l 22
 55 406 127 483 245 483 c 4
435 189 m 1046
EndSplineSet
EndChar
StartChar: f
Encoding: 102 102 17
Width: 380
VWidth: 0
Flags: HW
LayerCount: 2
Back
Fore
SplineSet
125 520 m 6
 125 612 185.237304688 673 277.422851562 673 c 4
 301.225759677 673 322.958984375 668.936523438 342.108398438 661.32421875 c 5
 321.784179688 599.3515625 l 5
 309.59765625 605.25 294.042806762 608 277.686523438 608 c 4
 227.677734375 608 195 573 195 520 c 6
 195 477 l 5
 305 477 l 5
 305 416 l 5
 195 416 l 5
 195 0 l 5
 125 0 l 5
 125 416 l 5
 45 416 l 5
 45 477 l 5
 125 477 l 5
 125 520 l 6
EndSplineSet
EndChar
StartChar: h
Encoding: 104 104 18
Width: 485
VWidth: 0
Flags: HW
LayerCount: 2
Back
Fore
SplineSet
255 483 m 4
 340.008639598 483 398.021604092 433.483134956 417.641276112 353.000005855 c 4
 424.746420494 323.853532255 425 296.368164062 425 258 c 14
 425 0 l 21
 355 0 l 13
 355 258 l 22
 355 297.655273438 354.922920066 325.872119585 344.672149596 352.999996479 c 4
 329.472731314 393.224089805 297.109258254 417 245 417 c 4
 192.890744787 417 160.527271346 393.224096846 145.327853064 353.000003521 c 4
 135.077082594 325.872126627 135 297.655273438 135 258 c 13
 95 285 l 21
 95 403 140 483 255 483 c 4
65 667 m 5
 135 667 l 5
 135 0 l 5
 65 0 l 5
 65 667 l 5
EndSplineSet
EndChar
StartChar: m
Encoding: 109 109 19
Width: 755
VWidth: 0
Flags: HW
LayerCount: 2
Back
Fore
SplineSet
625 0 m 13xe3
 625 258 l 22
 625 297.655273438 624.8671875 326.494140625 615.84375 353 c 4
 602.147460938 393.232421875 572.109375 417 520 417 c 4
 467.890625 417 437.852539062 393.232421875 424.15625 353 c 4
 415.1328125 326.494140625 415 297.655273438 415 258 c 13xe5
 345 288 l 21
 345 406 412 483 530 483 c 4
 615.008789062 483 669.72265625 433.466796875 688.15234375 353 c 4
 694.625976562 324.731445312 695 296.368164062 695 258 c 14
 695 0 l 21
 625 0 l 13xe3
345 0 m 13
 345 258 l 22
 345 297.655273438 344.867212108 326.493817196 335.843772641 352.999996479 c 4
 322.147480594 393.232590034 292.109258254 417 240 417 c 4
 187.890744787 417 157.852521808 393.232597076 144.15622976 353.000003521 c 4
 135.132790294 326.493824237 135 297.655273438 135 258 c 13xf5
 95 282 l 21xe9
 95 400 138 483 250 483 c 4
 335.008639598 483 384.72265625 433.466796875 403.15234375 353 c 4
 409.625976562 324.731445312 415 296.368164062 415 258 c 14
 415 0 l 21
 345 0 l 13
65 477 m 5
 135 477 l 5
 135 0 l 5
 65 0 l 5
 65 477 l 5
EndSplineSet
EndChar
StartChar: o
Encoding: 111 111 20
Width: 490
VWidth: 0
Flags: HW
LayerCount: 2
Back
Fore
SplineSet
245 417 m 4
 169 417 125 366.431640625 125 288 c 14
 125 189 l 22
 125 110.568359375 169 60 245 60 c 4
 321 60 365 110.568359375 365 189 c 14
 365 288 l 22
 365 366.431640625 321 417 245 417 c 4
245 483 m 4
 363 483 435 406 435 288 c 14
 435 189 l 22
 435 71 363 -6 245 -6 c 4
 127 -6 55 71 55 189 c 14
 55 288 l 22
 55 406 127 483 245 483 c 4
EndSplineSet
EndChar
StartChar: r
Encoding: 114 114 21
Width: 363
VWidth: 0
Flags: HW
LayerCount: 2
Back
SplineSet
65 477 m 5
 135 477 l 5
 135 0 l 5
 65 0 l 5
 65 477 l 5
95 288 m 21
 95 406 157 483 265 483 c 4
 286.211184153 483 305.61288808 480.51196469 323.170262008 475.744992717 c 5
 312.0234375 410.146484375 l 5
 295.813476562 414.872070312 276.712928171 417 255 417 c 4
 203.324012002 417 166.436932788 393.624490433 148.12784939 354.000003495 c 4
 135.544286916 326.766679139 135 298.102539062 135 258 c 13
 95 288 l 21
135 0 m 5
 66 0 l 1029
EndSplineSet
Fore
SplineSet
255 417 m 4
 179 417 135 366.431640625 135 288 c 14
 135 189 l 22
 135 110.568359375 179 60 255 60 c 4
 331 60 375 110.568359375 375 189 c 14
 375 288 l 22
 375 366.431640625 331 417 255 417 c 4
265 483 m 4
 383 483 445 406 445 288 c 14
 445 189 l 22
 445 71 373 -6 255 -6 c 4
 137 -6 95 71 95 189 c 14
 95 288 l 22
 95 406 157 483 265 483 c 4
135 0 m 5
 65 0 l 1029
EndSplineSet
EndChar
StartChar: s
Encoding: 115 115 22
Width: 426
VWidth: 0
Flags: HW
LayerCount: 2
Back
SplineSet
210 483 m 4
 316.4609375 483 454.615234375 426.630859375 454.999023438 283.341796875 c 6
 455 194.5 l 6
 454.999023438 50.62890625 316.649414062 -6 210 -6 c 4
 103.350585938 -6 -34.9990234375 50.62890625 -35 194.5 c 6
 -35 282.5 l 6
 -34.9990234375 426.37109375 103.350585938 483 210 483 c 4
210 417 m 4
 138.166992188 417 35.248046875 381.44140625 35.0009765625 283.078125 c 6
 35 194.5 l 6
 35.0009765625 95.73828125 138.044921875 60 210 60 c 4
 281.833007812 60 384.751953125 95.55859375 384.999023438 193.921875 c 6
 385 282.5 l 6
 384.999023438 381.26171875 281.955078125 417 210 417 c 4
43 40 m 29
 363 442.984375 l 1053
EndSplineSet
Fore
SplineSet
203 417 m 0
 148 417 110 396 110 349 c 0
 110 306 143 294 209 282 c 0
 274 271 376 242 376 137 c 0
 376 33 281 -6 203 -6 c 0
 165 -6 87 -2 35 44 c 1
 72 98 l 1
 115 60 182 60 203 60 c 0
 263 60 306 83 306 137 c 0
 306 188 263 206 197 218 c 0
 137 228 40 250 40 349 c 0
 40 448 132 483 203 483 c 0
 241 483 307 479 356 444 c 1
 321 389 l 1
 280 416 224 417 203 417 c 0
  Spiro
    203 417 o
    154.486 409.829 o
    121.866 387.488 o
    110 349 o
    120.978 315.211 o
    154.044 295.133 o
    209 282 o
    281.111 262.881 o
    347.201 218.754 o
    376 137 o
    348.532 53.7673 o
    282.442 7.93409 o
    203 -6 o
    154.168 -3.26614 o
    93.1602 10.6148 o
    35 44 v
    72 98 v
    120.356 71.2762 o
    169.303 61.4032 o
    203 60 o
    256.325 67.9467 o
    292.655 93.0713 o
    306 137 o
    292.434 177.968 o
    254.544 203.019 o
    197 218 o
    129.699 234.382 o
    67.3206 273.314 o
    40 349 o
    66.4327 427.681 o
    129.258 470.286 o
    203 483 o
    248.615 480.672 o
    303.055 469.649 o
    356 444 v
    321 389 v
    276.897 408.247 o
    233.776 415.744 o
    0 0 z
  EndSpiro
210 919.984375 m 16
 147 919.984375 82 892 82 819 c 0
 82 748 146.971679688 731.107421875 210 720 c 0
 275.548828125 708.44921875 348 685 348 607 c 0
 348 528 279 496.989257812 210 496.989257812 c 1032
EndSplineSet
EndChar
StartChar: t
Encoding: 116 116 23
Width: 378
VWidth: 0
Flags: HW
LayerCount: 2
Back
Fore
SplineSet
125.000976562 127 m 5
 125.216796875 46.978515625 177.36328125 -6 257.498046875 -6 c 4
 291.717635731 -6 321.015625 3.6611328125 343.373046875 20.962890625 c 5
 306.577148438 77.4736328125 l 5
 295.48828125 67.0869140625 277.322277427 60 257.76171875 60 c 4
 219.803710938 60 195.102539062 86.689453125 195.000976562 127 c 1029
EndSplineSet
EndChar
StartChar: x
Encoding: 120 120 10
Width: 450
VWidth: 0
Flags: HW
LayerCount: 2
Back
Fore
SplineSet
415 0 m 29
 38 477 l 29
 412 477 l 29
 35 0 l 29
 415 0 l 29
EndSplineSet
EndChar
StartChar: asciitilde
Encoding: 126 126 24
Width: 520
VWidth: 0
Flags: HW
LayerCount: 2
Back
Fore
SplineSet
83.54296875 234.081054688 m 21
 148.815429688 297.759765625 207.5625 289.797851562 259.778320312 250 c 4
 321.6640625 202.83203125 370.741210938 202.240234375 436.014648438 265.918945312 c 1028
EndSplineSet
EndChar
StartChar: cent
Encoding: 162 162 26
Width: 550
VWidth: 0
Flags: HW
LayerCount: 2
Back
SplineSet
279 483 m 5
 329 483 l 5
 393 483 440 467 472 442 c 5
 436 386 l 5
 411 405 375 417 329 417 c 5
 279 417 l 5
 216.890625 417 179.831054688 393.220703125 161.670898438 353 c 4
 149.325195312 325.658203125 149 297.655273438 149 258 c 14
 149 219 l 22
 149 179.344726562 149.325195312 151.341796875 161.670898438 124 c 4
 179.831054688 83.779296875 216.890625 60 279 60 c 5
 329 60 l 5
 378 60 415 73 441 95 c 5
 477 39 l 5
 444 11 396 -6 329 -6 c 5
 279 -6 l 5
 174.368164062 -6 109.286132812 43.517578125 87.2685546875 124 c 4
 79.3525390625 152.936523438 79 180.631835938 79 219 c 14
 79 258 l 22
 79 296.368164062 79.3525390625 324.063476562 87.2685546875 353 c 4
 109.286132812 433.482421875 174.368164062 483 279 483 c 5
EndSplineSet
Fore
SplineSet
279 563 m 5
 329 563 l 5
 329 -86 l 5
 279 -86 l 5
 279 563 l 5
EndSplineSet
EndChar
StartChar: mu
Encoding: 181 181 27
Width: 560
VWidth: 0
Flags: HW
LayerCount: 2
Back
Fore
SplineSet
375 124 m 5
 376 124 l 5
 435 477 l 5
 435 124 l 6
 435 79 460 60 485 60 c 6
 495 60 l 5
 495 -6 l 5
 485 -6 l 6
 426 -6 375 35 375 124 c 5
75 -185 m 5
 75 477 l 5
 145 477 l 5
 145 219 l 6
 145 179 145 151 155 124 c 4
 171 84 203 60 255 60 c 4
 307 60 339 84 355 124 c 4
 365 151 365 179 365 219 c 6
 365 477 l 5
 435 477 l 5
 435 219 l 6
 435 181 435 153 428 124 c 4
 408 44 350 -6 265 -6 c 4
 210 -6 171 12 145 45 c 5
 145 -185 l 5
 75 -185 l 5
EndSplineSet
EndChar
StartChar: Eth
Encoding: 208 208 28
Width: 621
VWidth: 0
Flags: HW
LayerCount: 2
Back
Fore
SplineSet
55 373 m 5
 328 373 l 5
 328 313 l 5
 55 313 l 5
 55 373 l 5
EndSplineSet
EndChar
StartChar: Oslash
Encoding: 216 216 29
Width: 601
VWidth: 0
Flags: HW
LayerCount: 2
Back
Fore
SplineSet
541 693 m 5
 123 -27 l 5
 60 -27 l 5
 478 693 l 5
 541 693 l 5
EndSplineSet
EndChar
StartChar: oslash
Encoding: 248 248 30
Width: 490
VWidth: 0
Flags: HW
LayerCount: 2
Back
Fore
SplineSet
387 507 m 5
 445 507 l 5
 103 -30 l 5
 45 -30 l 5
 387 507 l 5
EndSplineSet
EndChar
StartChar: dcroat
Encoding: 273 273 31
Width: 535
VWidth: 0
Flags: HW
LayerCount: 2
Back
Fore
SplineSet
248 483 m 4
 305.716796875 483 346.447265625 464.578125 373 431.947265625 c 5
 373 667 l 5
 443 667 l 5
 443 0 l 5
 373 0 l 5
 373 45.052734375 l 5
 346.447265625 12.421875 305.716796875 -6 248 -6 c 4
 162.991210938 -6 101.829101562 43.53515625 80.869140625 124 c 4
 73.3076171875 153.03125 73 180.631835938 73 219 c 6
 73 258 l 6
 73 296.368164062 73.3076171875 323.96875 80.869140625 353 c 4
 101.829101562 433.46484375 162.991210938 483 248 483 c 4
258 417 m 4
 205.890625 417 171.165039062 393.235351562 154.499023438 353 c 4
 143.401367188 326.20703125 143 297.655273438 143 258 c 6
 143 219 l 6
 143 179.344726562 143.401367188 150.79296875 154.499023438 124 c 4
 171.165039062 83.7646484375 205.890625 60 258 60 c 4
 309.67578125 60 344.259765625 83.3720703125 361.081054688 123 c 4
 372.802734375 150.615234375 373 178.897460938 373 219 c 6
 373 258 l 6
 373 298.102539062 372.802734375 326.384765625 361.081054688 354 c 4
 344.259765625 393.627929688 309.67578125 417 258 417 c 4
225 593 m 5xf8
 505 593 l 5
 505 532 l 5
 225 532 l 5
 225 593 l 5xf8
EndSplineSet
EndChar
StartChar: Lslash
Encoding: 321 321 32
Width: 550
VWidth: 0
Flags: HW
LayerCount: 2
Back
Fore
SplineSet
40 253 m 5
 280 453 l 5
 280 392 l 5
 40 192 l 5
 40 253 l 5
115 667 m 1
 189 667 l 1
 189 70 l 1
 495 70 l 1
 495 0 l 1
 115 0 l 1
 115 667 l 1
EndSplineSet
EndChar
StartChar: lslash
Encoding: 322 322 33
Width: 320
VWidth: 0
Flags: HW
LayerCount: 2
Back
Fore
SplineSet
40 253 m 5
 280 453 l 5
 280 392 l 5
 40 192 l 5
 40 253 l 5
115 667 m 5
 185 667 l 5
 185 184 185 546 185 0 c 5
 115 0 l 5
 115 429 115 123 115 667 c 5
EndSplineSet
EndChar
StartChar: OE
Encoding: 338 338 34
Width: 843
VWidth: 0
Flags: HW
LayerCount: 2
Back
Fore
SplineSet
460 667 m 5
 780 667 l 5
 780 597 l 5
 532 597 l 5
 532 378 l 5
 740 378 l 5
 740 308 l 5
 534 308 l 5
 534 70 l 5
 780 70 l 5
 780 0 l 5
 460 0 l 5
 460 667 l 5
319 673 m 4
 420 673 475 619 497 517 c 4
 503 492 504 468 504 438 c 5
 504 229 l 5
 504 199 503 175 497 150 c 4
 475 48 420 -6 319 -6 c 4
 208 -6 134 48 111 149 c 4
 105 174 104 199 104 229 c 5
 104 438 l 5
 104 468 105 493 111 518 c 4
 134 619 208 673 319 673 c 4
319 603 m 4
 253 603 207 575 188 518 c 4
 180 493 178 470 178 438 c 5
 178 229 l 5
 178 197 180 174 188 149 c 4
 207 92 253 64 319 64 c 4
 385 64 431 92 450 149 c 4
 458 173 460 197 460 229 c 5
 460 438 l 5
 460 470 458 494 450 518 c 4
 431 575 385 603 319 603 c 4
EndSplineSet
EndChar
StartChar: tilde
Encoding: 732 732 35
Width: 392
Flags: HW
LayerCount: 2
Back
Fore
SplineSet
74.55859375 556.018554688 m 21
 74.55859375 636.01953125 159.37109375 657.696289062 196 604 c 4
 232.62890625 550.303710938 317.44140625 571.98046875 317.44140625 651.981445312 c 1028
EndSplineSet
EndChar
StartChar: uni20BA
Encoding: 8378 8378 38
Width: 550
VWidth: 0
Flags: HW
LayerCount: 2
Back
Fore
SplineSet
68 423 m 5
 368 573 l 5
 368 512 l 5
 68 362 l 5
 68 423 l 5
68 283 m 5
 368 433 l 5
 368 372 l 5
 68 222 l 5
 68 283 l 5
232 667 m 5
 232 0 l 5
 158 0 l 5
 158 667 l 5
 232 667 l 5
467 298 m 29
 467 228 l 6
 467 62 359 0 232 0 c 13
 232 70 l 21
 322 70 393 110 393 228 c 6
 393 298 l 29
 467 298 l 29
EndSplineSet
EndChar
StartChar: Omega
Encoding: 8486 8486 39
Width: 600
VWidth: 0
Flags: HW
LayerCount: 2
Back
Fore
SplineSet
350 64 m 5
 535 64 l 5
 535 0 l 5
 350 0 l 5
 350 64 l 5
65 64 m 5
 250 64 l 5
 250 0 l 5
 65 0 l 5
 65 64 l 5
250 19 m 5
 163 19 65 96 65 302 c 6
 65 446 l 6
 65 611 173 673 300 673 c 4
 427 673 535 611 535 446 c 6
 535 302 l 6
 535 96 437 19 350 19 c 5
 350 64 l 5
 400 64 461 144 461 302 c 6
 461 446 l 6
 461 563 390 603 300 603 c 4
 210 603 139 563 139 446 c 6
 139 302 l 6
 139 144 200 64 250 64 c 5
 250 19 l 5
EndSplineSet
EndChar
